<?xml version="1.0" standalone="no"?>
<!DOCTYPE svg PUBLIC "-//W3C//DTD SVG 20010904//EN"
 "http://www.w3.org/TR/2001/REC-SVG-20010904/DTD/svg10.dtd">
<svg version="1.0" xmlns="http://www.w3.org/2000/svg"
 width="192.000000pt" height="192.000000pt" viewBox="0 0 192.000000 192.000000"
 preserveAspectRatio="xMidYMid meet">
<metadata>
</metadata>
<g transform="translate(0.000000,192.000000) scale(0.100000,-0.100000)"
fill="#ed64a6" stroke="none">
<path d="M0 960 l0 -960 960 0 960 0 0 960 0 960 -960 0 -960 0 0 -960z m1529
590 c86 -10 206 -44 217 -61 3 -6 -4 -37 -16 -70 -18 -47 -26 -59 -39 -53 -97
39 -132 47 -226 48 -88 1 -106 -2 -149 -24 -68 -34 -90 -67 -90 -134 0 -93 46
-135 227 -211 162 -68 204 -91 258 -142 69 -64 92 -130 87 -244 -5 -98 -30
-155 -94 -207 -83 -68 -252 -103 -408 -83 -100 13 -211 43 -241 65 -19 14 -19
15 2 73 12 35 26 57 34 56 8 -1 48 -14 89 -29 66 -25 89 -28 195 -29 110 0
125 2 170 25 62 33 89 76 89 145 0 93 -62 160 -196 210 -228 86 -295 127 -345
212 -25 44 -28 57 -28 143 0 86 3 100 30 148 59 107 156 156 335 171 8 0 53
-4 99 -9z m-935 -25 c149 -28 251 -98 299 -204 30 -65 30 -225 0 -292 -68
-152 -230 -219 -525 -219 l-88 0 0 -210 0 -210 -80 0 -80 0 2 563 3 562 65 11
c95 17 315 17 404 -1z"/>
<path d="M280 1176 l0 -226 109 0 c186 0 281 30 329 103 24 36 27 50 27 122 0
105 -26 149 -112 191 -54 27 -67 29 -205 33 l-148 3 0 -226z"/>
</g>
</svg>
