<svg width="361" height="203" viewBox="0 0 361 203" fill="none" xmlns="http://www.w3.org/2000/svg">
<mask id="mask0_3385_4573" style="mask-type:alpha" maskUnits="userSpaceOnUse" x="0" y="0" width="361" height="203">
<path fill-rule="evenodd" clip-rule="evenodd" d="M360.707 0.237671V94.0287C360.707 156.976 320.536 185.055 276.257 185.596C230.955 186.15 191.872 166.841 147.44 175.057C121.053 179.937 109.308 191.5 86.573 198.349C33.0812 214.464 0.706543 185.185 0.706543 164.151V21V0.237671H360.707Z" fill="white"/>
</mask>
<g mask="url(#mask0_3385_4573)">
<path fill-rule="evenodd" clip-rule="evenodd" d="M0.706543 20.9527C0.706543 9.90703 9.66085 1 20.7065 1H340.707C351.752 1 360.707 9.94717 360.707 20.9929C360.707 36.3677 360.707 60.7336 360.707 94.5169C360.707 157.795 320.536 186.021 276.257 186.565C230.955 187.121 191.872 167.711 147.44 175.971C121.053 180.876 109.308 192.499 86.573 199.384C33.0812 215.584 0.706543 186.152 0.706543 165.007C0.706543 125.822 0.706543 55.3355 0.706543 20.9527Z" fill="#CADFF8"/>
<rect x="0.706543" y="-10" width="360" height="124" fill="#EDF4FC"/>
<path fill-rule="evenodd" clip-rule="evenodd" d="M155.773 41.1953H177.535V17.156H155.773V41.1953Z" fill="#DCEAFA"/>
<path fill-rule="evenodd" clip-rule="evenodd" d="M156.823 39.6772H175.042V18.6744H156.823V39.6772Z" fill="#F9FBFE"/>
<path fill-rule="evenodd" clip-rule="evenodd" d="M176.269 41.1953H177.534V17.156H176.269V41.1953Z" fill="#CADFF8"/>
<path fill-rule="evenodd" clip-rule="evenodd" d="M160.823 34.5254H170.251V23.7168H160.823V34.5254Z" fill="#CADFF8"/>
<path fill-rule="evenodd" clip-rule="evenodd" d="M94.5249 49H147.365V7.69995H94.5249V49Z" fill="#DCEAFA"/>
<path fill-rule="evenodd" clip-rule="evenodd" d="M145.949 49H147.366V7.69995H145.949V49Z" fill="#CADFF8"/>
<path fill-rule="evenodd" clip-rule="evenodd" d="M96.2266 47.178H144.41V9.52209H96.2266V47.178Z" fill="#F9FBFE"/>
<path fill-rule="evenodd" clip-rule="evenodd" d="M99.0835 12.0796H141.458V44.6722H99.0835V12.0796ZM139.634 42.8502V13.9015H100.904V42.8502H139.634Z" fill="#DCEAFA"/>
<path fill-rule="evenodd" clip-rule="evenodd" d="M110.251 36.3278H130.493V20.4238H110.251V36.3278Z" fill="#CADFF8"/>
<rect x="0.706543" y="106" width="375" height="8" fill="#F9FBFE"/>
<g opacity="0.01">
<path fill-rule="evenodd" clip-rule="evenodd" d="M259.528 41.5562H278.542V20.5529H259.528V41.5562Z" fill="#DCEAFA"/>
<path fill-rule="evenodd" clip-rule="evenodd" d="M260.446 40.2297H276.365V21.8794H260.446V40.2297Z" fill="white"/>
<path fill-rule="evenodd" clip-rule="evenodd" d="M277.437 41.5562H278.542V20.5529H277.437V41.5562Z" fill="#CADFF8"/>
<path fill-rule="evenodd" clip-rule="evenodd" d="M263.943 35.7286H272.18V26.285H263.943V35.7286Z" fill="#CADFF8"/>
</g>
<g opacity="0.01">
<ellipse cx="287.706" cy="151.643" rx="19.2152" ry="6.17647" fill="#B9D5F6"/>
<path fill-rule="evenodd" clip-rule="evenodd" d="M284.168 72.6727H291.245C292.222 72.6727 293.014 73.4628 293.014 74.4374V75.0677L291.422 77.5257V84.1433H283.991V77.5257L282.399 75.0677V74.4374C282.399 73.4628 283.191 72.6727 284.168 72.6727Z" fill="#8270C8"/>
<path fill-rule="evenodd" clip-rule="evenodd" d="M278.86 80.8236H296.553C299.484 80.8236 301.86 83.1939 301.86 86.1177V100.026L300.21 101.698C299.192 102.728 299.192 104.382 300.21 105.413L301.86 107.085V147.882C301.86 150.806 299.484 153.177 296.553 153.177H278.86C275.929 153.177 273.553 150.806 273.553 147.882V107.085L275.204 105.413C276.221 104.382 276.221 102.728 275.204 101.698L273.553 100.026V86.1177C273.553 83.1939 275.929 80.8236 278.86 80.8236Z" fill="#B9AFE0"/>
<mask id="mask1_3385_4573" style="mask-type:alpha" maskUnits="userSpaceOnUse" x="273" y="80" width="29" height="74">
<path fill-rule="evenodd" clip-rule="evenodd" d="M278.86 80.8236H296.553C299.484 80.8236 301.86 83.1939 301.86 86.1177V100.026L300.21 101.698C299.192 102.728 299.192 104.382 300.21 105.413L301.86 107.085V147.882C301.86 150.806 299.484 153.177 296.553 153.177H278.86C275.929 153.177 273.553 150.806 273.553 147.882V107.085L275.204 105.413C276.221 104.382 276.221 102.728 275.204 101.698L273.553 100.026V86.1177C273.553 83.1939 275.929 80.8236 278.86 80.8236Z" fill="white"/>
</mask>
<g mask="url(#mask1_3385_4573)">
<path fill-rule="evenodd" clip-rule="evenodd" d="M273.553 110.614H301.86V115.908H273.553V110.614Z" fill="#8270C8"/>
<path fill-rule="evenodd" clip-rule="evenodd" d="M273.553 104.437H301.86V107.084H273.553V104.437Z" fill="#8270C8"/>
</g>
</g>
<path fill-rule="evenodd" clip-rule="evenodd" d="M204.718 26.1473C202.745 37.8838 195.614 44.169 193.647 55.1067C191.116 69.1746 199.426 68.6991 197.349 80.2434C196.272 86.2263 248.099 107.513 265.602 90.4754C276.833 79.5428 267.399 76.8175 270.345 60.4393C273.262 44.2266 261.82 40.299 263.358 31.7515C265.404 20.377 258.123 3.96343 243.206 1.27698C225.038 -1.99465 207.701 8.40839 204.718 26.1473Z" fill="#7B6153"/>
<path fill-rule="evenodd" clip-rule="evenodd" d="M227.744 57.1826C227.744 57.1826 233.066 58.304 235.571 57.4685L227.394 60.7587L227.744 57.1826Z" fill="#CF3E83"/>
<path fill-rule="evenodd" clip-rule="evenodd" d="M241.329 48.6722C239.165 51.0541 239.217 54.7147 239.803 56.9538C239.999 57.7221 241.03 64.0548 241.289 64.3797C242.293 65.6399 226.551 69.3752 226.551 69.3752L227.744 57.1824C223.469 56.6651 218.542 55.5477 216.141 53.2427C208.989 46.3763 211.881 27.5514 212.182 26.638L220.369 20.2415C220.369 20.2415 231.499 17.3459 232.7 19.6437C234.896 23.8515 238.616 41.581 243.802 40.5674C243.802 40.5674 244.115 35.32 248.403 36.0981C251.597 36.6777 252.001 39.3965 251.732 40.8764C250.825 45.8725 244.237 45.4622 241.329 48.6722Z" fill="#E2BEAB"/>
<path fill-rule="evenodd" clip-rule="evenodd" d="M220.611 7.72722C220.306 7.28469 219.977 6.85797 219.625 6.44901C218.639 7.10088 217.692 7.8099 216.795 8.57761C211.968 12.6994 208.496 18.4086 207.285 25.0851C207.254 25.2541 207.224 25.419 207.197 25.5885L207.193 25.588L206.211 30.9975C206.422 31.0274 206.63 31.0485 206.842 31.0663C210.996 31.4005 214.96 30.0513 217.952 27.5409C219.061 26.6083 220.039 25.5147 220.846 24.2898C220.972 24.109 221.087 23.9179 221.201 23.7352C221.779 22.7585 222.25 21.706 222.596 20.5913C234.206 42.305 243.802 40.5674 243.802 40.5674L243.775 29.9704L255.454 20.1989C255.454 20.1989 227.71 3.83363 220.611 7.72722Z" fill="#7B6153"/>
<path opacity="0.396996" fill-rule="evenodd" clip-rule="evenodd" d="M227.753 57.184C227.753 57.184 233.075 58.305 235.58 57.47L227.403 60.7602L227.753 57.184Z" fill="black"/>
<path opacity="0.2" fill-rule="evenodd" clip-rule="evenodd" d="M221.026 37.7325C221.042 37.3176 220.51 37.1342 220.266 37.4702L216.201 43.0705C216.011 43.3315 216.174 43.6999 216.495 43.7354L220.341 44.1605C220.584 44.1873 220.799 44.0021 220.807 43.7578L221.026 37.7325Z" fill="black"/>
<path opacity="0.8" fill-rule="evenodd" clip-rule="evenodd" d="M223.272 36.9234C223.176 38.3144 223.919 39.501 224.934 39.5741C225.948 39.6473 226.849 38.5791 226.946 37.1881C227.043 35.7971 226.299 34.6101 225.284 34.537C224.27 34.4642 223.369 35.5324 223.272 36.9234Z" fill="black"/>
<path opacity="0.8" fill-rule="evenodd" clip-rule="evenodd" d="M213.808 35.7332C213.711 37.1242 214.455 38.3109 215.47 38.3841C216.484 38.4572 217.386 37.3889 217.482 35.9978C217.579 34.6067 216.835 33.4197 215.82 33.3469C214.806 33.2738 213.905 34.3421 213.808 35.7332Z" fill="black"/>
<path d="M225.658 45.8609C225.279 45.4219 224.615 45.3739 224.176 45.7537C223.348 46.4695 222.546 46.8415 221.78 46.9563C221.309 47.0268 220.9 46.9946 220.573 46.9075L220.431 46.8648C220.411 46.8579 220.402 46.8544 220.405 46.8557C219.879 46.6099 219.253 46.8369 219.007 47.3628C218.761 47.8888 218.989 48.5144 219.514 48.7602C219.594 48.7974 219.711 48.8432 219.863 48.8903C221.502 49.3989 223.526 49.096 225.551 47.3435C225.99 46.9637 226.038 46.2999 225.658 45.8609Z" fill="black"/>
<ellipse opacity="0.2" rx="2.94313" ry="2.10223" transform="matrix(-0.992186 -0.124766 -0.124766 0.992186 230.508 42.6076)" fill="#E88950"/>
<path fill-rule="evenodd" clip-rule="evenodd" d="M253.367 123.369L216.863 122.831C216.863 122.831 217.179 119.43 216.401 114.515C215.388 108.086 207.049 91.5521 207.049 91.5521L191.351 109.173L207.049 123.369C207.063 123.361 203.333 129.775 203.333 129.775C203.333 129.775 179.155 120.315 176.394 110.584C175.132 106.138 202.144 69.569 210.098 64.5573C218.28 59.4026 225.651 60.7649 232.496 61.1222C239.02 61.4654 247.103 62.43 247.103 62.43C247.103 62.43 252.842 73.3207 254.121 78.7126C257.417 92.6145 254.874 104.413 254.121 110.584C253.367 116.754 253.367 123.369 253.367 123.369Z" fill="#E2BEAB"/>
<path fill-rule="evenodd" clip-rule="evenodd" d="M259.076 110.611C260.703 110.896 262.691 111.155 264.86 111.439C272.922 112.492 283.485 113.872 287.281 118.057C290.578 121.693 283.803 122.028 281.068 122.163C280.708 122.181 280.417 122.195 280.23 122.213C278.764 122.353 250.891 120.049 248.446 118.079C247.704 117.481 247.353 116.168 247.444 114.723C246.845 112.199 247.015 108.349 247.205 104.059C247.375 100.229 247.56 96.0482 247.227 92.1465C246.54 84.0987 244.22 76.9183 242.686 72.1695C241.809 69.4547 241.188 67.5346 241.276 66.7015C242.023 59.6501 248.524 62.8099 250.096 63.6561C260.613 69.3192 260.023 81.9199 259.393 95.3371C259.176 99.9698 258.954 104.7 259.184 109.275C259.194 109.73 259.156 110.176 259.076 110.611Z" fill="#E2BEAB"/>
<path opacity="0.15" d="M211.869 85.3958C212.107 85.142 212.506 85.1296 212.76 85.3681C212.998 85.5917 213.024 85.9565 212.83 86.2103L212.788 86.2596L208.411 90.9181C208.172 91.172 207.773 91.1844 207.519 90.9459C207.281 90.7223 207.255 90.3575 207.45 90.1036L207.491 90.0544L211.869 85.3958Z" fill="black"/>
<path fill-rule="evenodd" clip-rule="evenodd" d="M216.067 127.043C216.067 127.043 216.901 119.331 216.067 114.439C215.169 109.178 211.548 101.448 210.875 99.435C210.875 99.435 211.497 101.394 213.792 98.7783C217.078 95.0328 222.508 89.0695 222.731 80.0666C222.955 71.0637 220.992 65.4315 219.962 60.7903C219.917 60.5894 223.903 60.6148 223.903 60.6148C223.903 60.6148 225.636 69.3447 227.491 73.8059C230.948 82.1169 244.103 80.6028 247.8 79.1265C251.497 77.6502 243.947 61.8836 243.947 61.8836C243.947 61.8836 247.34 62.2762 247.513 62.5229C252.408 69.515 255.078 78.7991 255.078 78.7991C259.059 100.454 254.608 96.8991 253.55 123.682L216.067 127.043Z" fill="white"/>
<path fill-rule="evenodd" clip-rule="evenodd" d="M243.718 216.87C243.859 216.387 243.994 215.876 244.123 215.336C246.987 201.591 248.485 189.601 250.478 173.654C251.411 166.187 252.453 157.853 253.794 148.064C254.959 139.554 252.944 122.953 252.944 122.953C252.944 122.953 219.762 126.362 219.846 126.418C211.378 130.551 211.002 138.432 212.074 149.592C212.896 158.156 219.563 184.302 223.48 199.663C224.153 202.305 224.745 204.628 225.213 206.488C224.715 207.35 224.376 208.296 224.242 209.308C218.547 223.042 219.035 238.173 220.38 279.836C220.51 283.867 220.648 288.147 220.789 292.698C220.81 293.371 232.66 291.629 232.772 290.596C235.165 268.549 238.136 251.685 240.403 238.824C242.031 229.585 243.295 222.413 243.718 216.87Z" fill="#AB9FDA"/>
<path fill-rule="evenodd" clip-rule="evenodd" d="M229.26 214.411C229.606 213.645 229.935 212.767 230.245 211.762C236.217 192.441 239.639 170.403 241.104 160.965C241.392 159.107 241.605 157.737 241.746 156.972C241.826 156.541 241.941 156.121 242.086 155.708C242.761 154.159 243.823 152.359 245.029 150.317C248.953 143.666 254.394 134.445 252.94 122.953L216.592 126.759C201.39 143.123 204.344 179.72 206.236 203.164C206.631 208.061 206.98 212.383 207.107 215.828C204.594 229.423 204.983 257.082 206.49 293.959C206.516 294.606 219.703 292.946 219.789 292.271C220.851 283.957 221.894 275.954 222.88 268.389C225.941 244.909 228.451 225.65 229.26 214.411Z" fill="#C7BFE6"/>
<path opacity="0.204148" fill-rule="evenodd" clip-rule="evenodd" d="M216.59 126.759L252.938 122.953L253.626 126.631L213.972 130.504L216.59 126.759Z" fill="black"/>
<path d="M224.771 127.86C224.3 127.767 219.465 124.7 218.013 123.892C216.649 123.132 205.904 122.662 205.904 122.662L201.318 128.44C201.318 128.44 209.554 137.185 209.96 137.463C210.811 138.044 214.106 139.856 215.713 139.361C216.702 139.056 216.989 137.889 216.989 137.889C216.989 137.889 218.129 138.189 218.935 137.798C219.62 137.465 219.924 136.323 219.924 136.323C219.924 136.323 220.691 136.403 221.297 136.224C222.043 136.004 222.622 135.439 222.747 134.526C222.795 134.18 222.472 133.665 222.472 133.665C222.472 133.665 223.288 133.838 223.73 133.623C224.19 133.4 224.883 132.779 224.838 131.806C224.812 131.235 224.164 130.712 224.164 130.712C224.164 130.712 225.319 130.664 225.827 130.331C226.501 129.891 226.583 129.209 226.36 128.75C226.081 128.175 225.628 128.028 224.771 127.86Z" fill="#E2BEAB"/>
<path d="M216.31 127.417C216.31 127.417 217.975 127.755 218.591 128.016C219.842 128.545 223.937 130.616 223.937 130.616" stroke="black" stroke-opacity="0.15" stroke-width="1.26134" stroke-linecap="round" stroke-linejoin="round"/>
<path d="M219.055 132.196C220.419 132.956 221.9 133.374 221.9 133.374" stroke="black" stroke-opacity="0.15" stroke-width="1.26134" stroke-linecap="round" stroke-linejoin="round"/>
<path d="M216.45 135.023C217.813 135.783 219.354 136.03 219.354 136.03" stroke="black" stroke-opacity="0.15" stroke-width="1.26134" stroke-linecap="round" stroke-linejoin="round"/>
<path d="M213.567 136.991C214.819 137.52 216.36 137.767 216.36 137.767" stroke="black" stroke-opacity="0.15" stroke-width="1.26134" stroke-linecap="round" stroke-linejoin="round"/>
<path d="M295.48 117.745C295.254 117.316 294.581 116.888 294.581 116.888C294.581 116.888 295.237 116.737 295.492 116.431C295.974 115.854 296.158 115.104 295.825 114.352C295.649 113.955 295.1 113.508 295.1 113.508C295.1 113.508 296.268 112.622 296.813 111.71C297.214 111.039 297.256 109.794 296.529 109.673C295.576 109.513 294.104 110.452 294.104 110.452C294.104 110.452 292.745 110.716 291.891 110.723C290.616 110.735 289.897 110.935 288.62 111.089C286.507 111.344 285.228 110.883 283.15 111.551C280.724 112.332 277.279 113.825 277.279 113.825L275.893 121.698C275.893 121.698 278.776 123.55 280.522 124.24C282.689 125.096 285.942 125.614 285.942 125.614C285.942 125.614 289.852 126.68 290.703 126.413C291.601 126.13 292.271 125.392 292.082 124.413C291.999 123.987 291.612 123.676 291.612 123.676C291.612 123.676 293.014 123.685 293.475 123.379C294.306 122.829 294.72 121.983 294.425 121.259C294.315 120.991 293.942 120.697 293.942 120.697C293.942 120.697 294.477 120.53 294.759 120.32C295.597 119.698 295.967 118.669 295.48 117.745Z" fill="#E2BEAB"/>
<path d="M294.75 113.483C294.75 113.483 288.029 113.26 286.492 114.874C285.634 115.773 289.256 116.573 289.256 116.573M289.256 116.573L294.15 116.769M289.256 116.573C289.256 116.573 285.294 116.326 285.086 117.222C284.878 118.118 286.295 118.628 286.295 118.628M286.295 118.628L293.524 120.403M286.295 118.628C286.295 118.628 285.288 118.785 285.089 119.501C284.85 120.361 288.162 121.75 288.162 121.75M288.162 121.75L291.288 123.302M288.162 121.75C288.162 121.75 286.097 121.243 285.547 121.552C284.998 121.861 285.061 122.407 285.281 122.759C286.14 124.14 288.757 125.477 288.757 125.477" stroke="black" stroke-opacity="0.15" stroke-width="1.26134" stroke-linecap="round" stroke-linejoin="round"/>
<path d="M372.604 71.1283L367.491 61.9444C367.491 61.9444 290.58 106.44 286.796 111.276C285.307 113.178 284.483 116.952 284.483 116.952C285.114 115.901 286.165 116.111 286.165 116.111C286.165 116.111 285.478 114.676 286.165 114.219C288.688 112.537 295.625 113.168 295.625 113.168L372.604 71.1283Z" fill="#7460C2"/>
<path d="M374.033 70.4898L370.44 60.6118L216.62 126.066C216.235 126.23 216.297 126.806 216.707 126.892C217.49 127.056 218.405 127.27 218.888 127.463C219.7 127.788 223.022 129.618 224.491 130.434C224.938 130.682 225.47 130.715 225.944 130.523L374.033 70.4898Z" fill="#8F7FCE"/>
<path opacity="0.11" d="M374.917 61.369C374.547 60.258 373.34 59.6638 372.234 60.0477L365.223 62.48C364.444 62.7503 363.895 63.4515 363.819 64.2728L363.039 72.7223C362.885 74.3851 364.638 75.5544 366.115 74.7741L375.822 69.643C376.731 69.1625 377.159 68.095 376.834 67.1196L374.917 61.369Z" fill="black"/>
<path d="M290.366 126.412C290.366 126.412 288.215 126 287.003 125.15C285.858 124.347 284.48 123.468 284.48 122.417C284.48 121.755 285.321 120.946 285.321 120.946C285.321 120.946 285.05 120.703 284.901 120.525C284.71 120.299 284.48 119.895 284.48 119.895C284.48 119.895 280.489 129.674 281.117 130.616C282.378 132.508 287.003 135.241 289.526 133.559C290.821 132.695 290.366 126.412 290.366 126.412Z" fill="#7460C2"/>
<path d="M206.276 133.559C206.276 133.559 201.598 139.989 202.281 141.127C203.543 143.229 207.747 145.962 209.429 145.121C211.111 144.281 212.372 138.815 212.372 138.815C212.372 138.815 210.69 137.974 210.06 137.553C209.219 136.993 206.276 133.559 206.276 133.559Z" fill="#8F7FCE"/>
<ellipse cx="62.2379" cy="177.327" rx="21.7476" ry="6.14402" fill="#B9D5F6"/>
<g clip-path="url(#clip0_3385_4573)">
<path fill-rule="evenodd" clip-rule="evenodd" d="M50.7986 62.3135C52.1914 62.1434 53.6779 62.2034 54.9731 62.7532C57.7272 63.9223 58.5101 67.176 58.4724 69.8207C58.4316 72.6671 57.8272 75.7762 59.9913 78.0697C60.9861 79.1241 62.2235 79.931 63.2003 81.0048C64.2441 82.1522 65.0631 83.4652 65.6695 84.875C66.7829 87.4647 67.3294 90.5101 66.3112 93.2267C65.4147 95.6185 63.1593 97.7773 63.6467 100.497C64.155 103.334 67.0155 105.503 68.8038 107.616C70.8277 110.008 72.6912 113.064 72.9973 116.201C73.2909 119.206 71.9826 122.246 69.9747 124.518C65.9631 129.058 59.933 131.284 53.8527 131.27C51.2712 131.264 48.3485 131.147 46.1207 129.76C45.4322 129.331 45.0689 128.85 44.6596 128.181C44.2926 127.582 43.8078 127.192 43.2467 126.767C42.0139 125.835 41.1236 124.579 40.5554 123.173C38.3491 117.712 40.1125 110.955 43.2009 106.105C43.9327 104.956 44.5318 103.851 44.1763 102.481C43.8053 101.052 42.8935 99.7621 42.087 98.5332C41.2901 97.3187 40.3803 96.16 39.7574 94.8468C39.105 93.4712 38.9213 92.0306 39.0366 90.5251C39.2532 87.6971 40.474 85.0873 42.2025 82.813C43.8672 80.6222 45.822 78.5261 45.8263 75.6556C45.8311 72.6132 43.7972 69.9069 44.6637 66.8137C45.0225 65.5329 45.7431 64.2188 46.9044 63.451C48.0182 62.7145 49.4887 62.4736 50.7986 62.3135Z" fill="#BFE6CE"/>
<path fill-rule="evenodd" clip-rule="evenodd" d="M49.8883 67.1789C49.9144 66.7703 50.3991 66.5253 50.7807 66.6319C51.2829 66.7723 51.2732 67.2416 51.26 67.6596C51.2193 68.9447 51.4053 70.1936 51.7142 71.4405C52.3563 74.0329 53.5428 76.4214 54.4829 78.9117C55.4222 81.3998 55.8631 83.9688 55.3121 86.6016C54.7926 89.0839 53.9766 91.502 53.445 93.9875C52.9765 96.1782 52.4779 98.4883 53.1914 100.673C53.878 102.777 55.396 104.49 56.4891 106.39C58.7519 110.325 59.7558 114.69 59.8901 119.182C59.9523 121.268 59.8963 123.373 59.4123 125.419C59.1338 126.597 58.7595 128.189 57.75 129.003C57.2846 129.378 56.4884 129.507 56.0966 128.952C55.7288 128.431 56.0515 127.624 56.1683 127.069C56.674 124.666 56.7757 122.209 56.6546 119.769C56.5374 117.405 56.2581 115.045 55.5141 112.787C54.8236 110.692 53.7745 108.81 52.5399 106.977C51.2817 105.11 49.9738 103.238 49.454 101.025C48.9258 98.7769 49.3549 96.4897 49.9286 94.2849C50.5354 91.9528 51.3302 89.6877 52.1518 87.4188C52.9526 85.2079 53.2364 83.116 52.7943 80.8021C51.9211 76.2305 49.5838 71.9396 49.8883 67.1789Z" fill="#F9FBFE"/>
<path fill-rule="evenodd" clip-rule="evenodd" d="M87.5722 67.8627C89.2957 68.386 91.0075 69.2303 92.2361 70.5543C94.8485 73.3697 94.0469 77.6249 92.6048 80.7329C91.0525 84.078 88.7002 87.4404 90.0262 91.2785C90.6357 93.043 91.6606 94.6411 92.2388 96.4191C92.8565 98.3191 93.1231 100.298 93.0891 102.281C93.0262 105.922 92.0575 109.808 89.4274 112.491C87.1118 114.854 83.3254 116.233 82.4594 119.703C81.556 123.323 83.7646 127.376 84.7452 130.806C85.855 134.687 86.4251 139.271 85.1264 143.139C83.8821 146.847 80.7409 149.761 77.185 151.403C70.0801 154.685 61.831 154.18 54.7068 151.001C51.6821 149.651 48.3156 147.992 46.4359 145.193C45.855 144.328 45.6832 143.57 45.5566 142.566C45.4431 141.666 45.0807 140.952 44.6468 140.159C43.6935 138.415 43.3132 136.466 43.39 134.508C43.6889 126.901 49.3284 119.828 55.5141 115.7C56.9798 114.721 58.2669 113.726 58.5738 111.921C58.8943 110.037 58.5064 108.038 58.2101 106.165C57.9173 104.314 57.4626 102.471 57.4261 100.594C57.3881 98.6273 57.934 96.8281 58.865 95.1076C60.6139 91.8758 63.4252 89.4245 66.6546 87.6339C69.7651 85.9092 73.1658 84.4471 74.6881 81.0546C76.3018 77.4592 75.3467 73.2005 77.9979 69.9932C79.0957 68.6652 80.6355 67.4859 82.4035 67.182C84.0991 66.8905 85.9513 67.3705 87.5722 67.8627Z" fill="#AFE0C2"/>
<path fill-rule="evenodd" clip-rule="evenodd" d="M84.0518 73.8087C84.2963 73.3385 84.9914 73.3023 85.3817 73.6286C85.8954 74.0581 85.6384 74.6087 85.4039 75.0969C84.6834 76.5974 84.2468 78.1739 83.955 79.8124C83.348 83.219 83.4845 86.6694 83.2796 90.1112C83.0747 93.55 82.2449 96.8233 80.2217 99.6524C78.3142 102.32 76.0936 104.756 74.1703 107.421C72.4751 109.769 70.6823 112.244 70.3722 115.205C70.0735 118.056 70.9514 120.88 71.2341 123.704C71.8193 129.55 70.707 135.245 68.5114 140.635C67.4917 143.138 66.3237 145.602 64.6864 147.771C63.7438 149.02 62.4723 150.709 60.866 151.143C60.1253 151.343 59.1264 151.079 58.9592 150.216C58.8019 149.407 59.6016 148.621 60.0289 148.024C61.879 145.443 63.2844 142.588 64.421 139.634C65.5221 136.773 66.4315 133.832 66.7439 130.768C67.0337 127.925 66.7927 125.147 66.3088 122.329C65.8159 119.458 65.2668 116.556 65.818 113.662C66.3776 110.724 68.0772 108.24 69.9028 105.93C71.8337 103.486 73.9494 101.22 76.0984 98.9638C78.1926 96.7653 79.62 94.4368 80.315 91.4649C81.6882 85.5934 81.2024 79.2869 84.0518 73.8087Z" fill="#F9FBFE"/>
<path fill-rule="evenodd" clip-rule="evenodd" d="M34.2911 89.4559C37.1569 89.4559 39.6765 90.975 41.4126 93.1306C43.4448 95.654 43.8553 98.7357 44.6805 101.743C45.0912 103.24 45.7974 104.726 47.0351 105.743C48.1609 106.667 49.59 106.852 50.9374 107.304C53.6304 108.207 55.8049 110.382 56.6636 113.036C57.7113 116.274 56.6016 119.539 56.7927 122.82C56.9681 125.833 59.939 127.713 62.3293 129.157C64.6862 130.581 66.8095 131.915 67.5194 134.689C68.2721 137.632 68.5247 140.917 67.482 143.824C65.7461 148.665 60.6658 150.796 55.7569 151.127C51.3019 151.427 45.7003 150.956 42.3546 147.722C40.3526 145.787 39.6276 143.08 39.7176 140.388C39.7734 138.713 40.1051 137.055 40.534 135.437C40.8379 134.29 41.2485 133.148 41.3655 131.963C41.6765 128.81 38.7625 128.204 36.2821 127.339C33.1303 126.239 30.9237 124.161 29.3893 121.266C27.9603 118.57 27.3608 115.545 28.2174 112.577C28.6549 111.061 29.4484 109.687 30.5246 108.517C30.9983 108.003 31.666 107.573 32.0936 107.032C32.4927 106.527 32.4058 105.873 32.2682 105.282C31.6323 102.55 29.6508 100.287 28.9422 97.5601C28.3025 95.0985 28.6807 92.0348 30.9312 90.4467C31.9036 89.7606 33.1027 89.4635 34.2911 89.4559Z" fill="#7FCE9E"/>
<path fill-rule="evenodd" clip-rule="evenodd" d="M38.196 96.5754C41.2335 99.8109 42.0591 104.201 42.3014 108.456C42.4371 110.841 42.2958 113.358 42.9968 115.672C43.5966 117.653 45.0027 119.167 46.452 120.598C49.3694 123.479 52.6231 126.407 53.4764 130.576C53.9771 133.023 53.6391 135.55 54.331 137.97C54.9601 140.169 56.0677 142.33 57.4149 144.188C58.4997 145.683 59.9129 146.828 61.0986 148.222C61.4604 148.648 61.9786 149.275 61.8293 149.875C61.6546 150.579 60.7583 150.802 60.1225 150.691C58.6399 150.433 57.3919 149.018 56.4225 147.989C55.005 146.484 53.8004 144.865 52.8214 143.049C51.7345 141.033 50.8594 138.893 50.4855 136.631C50.0974 134.284 50.2906 131.838 49.4045 129.585C47.9135 125.795 44.297 123.559 41.6823 120.605C38.4246 116.924 38.9104 112.343 39.2441 107.815C39.4274 105.327 39.6096 102.517 38.3523 100.245C37.8724 99.3781 36.8023 98.5695 36.5959 97.5838C36.4069 96.6807 37.4385 95.7681 38.196 96.5754Z" fill="#F9FBFE"/>
<path fill-rule="evenodd" clip-rule="evenodd" d="M41.4355 149.745L41.444 151.386L41.4594 152.454L41.4833 153.501L41.5161 154.526L41.5583 155.53C41.5662 155.695 41.5744 155.86 41.5831 156.024L41.6403 156.996L41.708 157.946L41.7868 158.875C41.815 159.181 41.8451 159.484 41.8772 159.783L41.9795 160.669L42.0943 161.533C42.1145 161.675 42.1352 161.817 42.1565 161.957L42.2909 162.789C44.0083 172.777 48.7598 177.944 60.3974 177.944C72.3539 177.944 77.0416 172.49 78.6382 161.957L78.7594 161.104L78.8679 160.228L78.9642 159.332L79.0487 158.414C79.0749 158.104 79.0993 157.791 79.1219 157.474L79.1843 156.513L79.2363 155.53C79.2442 155.364 79.2516 155.198 79.2586 155.031L79.2961 154.016L79.3244 152.98C79.3284 152.805 79.332 152.63 79.3353 152.454L79.3554 150.844L79.3591 149.745H41.4355Z" fill="#536479"/>
</g>
</g>
<defs>
<clipPath id="clip0_3385_4573">
<rect width="68" height="117.938" fill="white" transform="translate(27.7065 62)"/>
</clipPath>
</defs>
</svg>
